<?xml version="1.0" encoding="UTF-8" standalone="no"?>
<!-- Created with Inkscape (http://www.inkscape.org/) -->

<svg
   width="115.5mm"
   height="115.5mm"
   viewBox="0 0 115.5 115.5"
   version="1.1"
   id="svg5"
   inkscape:version="1.1.2 (0a00cf5339, 2022-02-04)"
   sodipodi:docname="hit_forward.svg"
   xmlns:inkscape="http://www.inkscape.org/namespaces/inkscape"
   xmlns:sodipodi="http://sodipodi.sourceforge.net/DTD/sodipodi-0.dtd"
   xmlns="http://www.w3.org/2000/svg"
   xmlns:svg="http://www.w3.org/2000/svg">
  <sodipodi:namedview
     id="namedview7"
     pagecolor="#505050"
     bordercolor="#eeeeee"
     borderopacity="1"
     inkscape:pageshadow="0"
     inkscape:pageopacity="0"
     inkscape:pagecheckerboard="0"
     inkscape:document-units="mm"
     showgrid="false"
     inkscape:zoom="0.6012314"
     inkscape:cx="-24.11717"
     inkscape:cy="343.46177"
     inkscape:window-width="1920"
     inkscape:window-height="1080"
     inkscape:window-x="0"
     inkscape:window-y="0"
     inkscape:window-maximized="1"
     inkscape:current-layer="layer1"
     inkscape:snap-global="false" />
  <defs
     id="defs2">
    <marker
       style="overflow:visible"
       id="Arrow1Lstart"
       refX="0"
       refY="0"
       orient="auto"
       inkscape:stockid="Arrow1Lstart"
       inkscape:isstock="true">
      <path
         transform="matrix(0.8,0,0,0.8,10,0)"
         style="fill:context-stroke;fill-rule:evenodd;stroke:context-stroke;stroke-width:1pt"
         d="M 0,0 5,-5 -12.5,0 5,5 Z"
         id="path1126" />
    </marker>
    <marker
       style="overflow:visible"
       id="Arrow1Lend"
       refX="0"
       refY="0"
       orient="auto"
       inkscape:stockid="Arrow1Lend"
       inkscape:isstock="true">
      <path
         transform="matrix(-0.8,0,0,-0.8,-10,0)"
         style="fill:context-stroke;fill-rule:evenodd;stroke:context-stroke;stroke-width:1pt"
         d="M 0,0 5,-5 -12.5,0 5,5 Z"
         id="path1129" />
    </marker>
    <linearGradient
       id="linearGradient1135"
       inkscape:swatch="solid">
      <stop
         style="stop-color:#ffffff;stop-opacity:1;"
         offset="0"
         id="stop1133" />
    </linearGradient>
  </defs>
  <g
     inkscape:label="Layer 1"
     inkscape:groupmode="layer"
     id="layer1"
     transform="translate(34.367081,-37.515404)">
    <rect
       style="fill:#ffffff;fill-opacity:0.5;stroke:#ffffff;stroke-width:5.5;stroke-miterlimit:4;stroke-dasharray:none;stroke-opacity:1"
       id="rect846"
       width="110"
       height="110"
       x="-31.617081"
       y="40.265404"
       rx="22"
       ry="22" />
    <g
       id="g1160"
       transform="rotate(45,23.382919,95.265404)" />
    <path
       d="m 5.8768134,76.8676 c -0.09337,-0.02534 -0.186031,-0.05217 -0.277812,-0.08061 0.06347,0.01877 0.157218,0.0466 0.277812,0.08061 z M 41.131451,90.319159 c 0,0 -2.413436,-2.069062 -7.240933,-4.023124 0,0 3.792809,3.333435 7.240933,4.023124 z m 21.377802,-8.39031 -2.643436,-2.298746 -1.379998,-0.229687 -1.496249,-2.058438 0.232185,-0.930003 -0.344375,-0.631878 0.344375,0.172197 -0.114688,-2.298445 -3.557811,-6.36561 -5.127184,-2.016876 0.64531,-0.860935 c 0.1275,-1.041564 -0.142186,-1.838125 -0.349062,-2.815005 -0.125312,-0.587809 0.622189,-2.024999 0.377501,-2.550623 -1.821561,-3.617811 -7.584996,-5.067811 -7.584996,-5.067811 l -1.536563,-1.474681 c -0.84375,-3.438121 -4.584372,-4.669066 -4.594058,-4.676879 l -0.02,-0.0063 -1.163436,-0.101875 c -0.796249,-0.766251 -1.340625,-1.302501 -1.340625,-1.302501 l -1.723757,-1.149374 -4.454998,1.955624 -0.04375,-0.01812 c 0,0 -0.08625,0.04312 -0.211875,0.130312 l -0.0019,9.74e-4 c -9.75e-4,6.25e-4 -0.0016,0.0016 -0.0021,0.0023 -0.160313,0.11125 -0.383126,0.294062 -0.579375,0.549995 -2.440623,2.420317 -5.377498,6.547816 -6.937809,8.834683 -0.750913,-1.5288 -1.151851,-2.539731 -1.151851,-2.539731 l -2.847889,-0.328749 c -3.562967,0.919372 -11.3528686,4.974996 -11.3528686,4.974996 -0.459843,3.792498 -7.3558398,19.768419 -7.3558398,19.768419 l 0.4597184,1.494063 c 0.862437,4.612816 2.81409307,8.367807 5.051873,11.335304 l -6.8290906,10.673121 -10.4349294,14.98169 -1.272465,2.12844 c -0.04695,1.0604 0.667355,1.2285 0.833252,2.99096 0.789309,8.39072 5.464488,22.66013 28.077009,23.06577 l 1.870841,-0.28809 h 7.195308 c 0.336878,-0.68237 0.743437,-1.50427 1.200937,-2.42761 3.804063,-7.67921 11.139059,-22.39232 11.501245,-22.40576 1.773749,-0.0671 3.771249,-0.36804 6.021559,-0.97656 0,0 13.447183,-5.74635 14.825931,-14.02197 l 6.206872,-10.573431 1.034373,-1.26407 0.403751,-1.9203 0.373749,-0.0213 0.112812,-3.117189 0.775936,-2.64219 z m -4.482497,-1.839064 1.954061,0.689686 1.953436,2.52844 -0.344687,2.06875 -0.06406,0.131253 c -0.647498,-2.30313 -2.180311,-4.161568 -3.538747,-5.436254 z m -6.219999,-11.981865 2.427186,2.787182 0.190001,1.569693 -1.569374,-1.569693 -3.70406,-3.109995 z m 2.427186,7.154678 0.919376,2.06875 -3.420624,3.66469 -1.341562,-0.745317 0.488438,1.660004 -1.742497,1.86656 -1.155627,-0.641871 0.420312,1.42968 -1.860311,1.993437 -0.970312,-0.538741 0.353437,1.199683 -1.979372,2.120313 -0.783439,-0.435312 0.285,0.969687 -1.401873,1.501878 c -1.379061,-0.054 -4.403124,-0.55282 -8.154371,-3.470317 0,0 4.439684,4.842497 7.079682,4.602497 l -0.358748,0.33938 H 38.48739 L 35.49989,91.238529 31.591768,88.02041 31.017394,86.066348 46.723323,68.627927 46.54426,67.999486 c 4.0525,1.984366 7.689683,7.263112 7.689683,7.263112 z M 39.855828,54.34543 c 6.27687,2.064065 7.875619,9.183123 7.875619,9.183123 l -5.680621,6.217181 -11.033432,13.792175 -1.609062,0.115012 c -0.876249,-0.208753 -2.056247,-0.79688 -3.203124,-1.46063 2.853126,-1.132183 4.007499,-2.906875 4.007499,-2.906875 -1.85656,1.049377 -4.504997,1.531568 -5.918434,1.725626 -0.402187,-0.262498 -0.766875,-0.508748 -1.071562,-0.718432 -0.0115,-0.351566 -0.03312,-0.721877 -0.06687,-1.11281 5.497809,1.593743 9.240619,-2.882815 9.240619,-2.882815 l 0.115,-5.056873 0.459999,-0.115 c -1.639999,-0.307506 -3.178747,-1.04594 -4.60156,-2.049378 2.001874,-3.073428 6.019998,-8.616557 7.890309,-11.177179 l 1.647813,-0.809681 c 1.602497,0.763742 4.579684,2.46343 6.325935,5.213433 0,0 1.273124,-3.824059 -6.772811,-5.937809 z m -4.119062,-5.299687 c 1.330313,0.691564 2.119376,1.63156 2.592812,2.500626 -0.845625,-0.735625 -1.82375,-1.638123 -2.719062,-2.481872 z m -9.912494,1.215 1.84375,-0.759374 4.942183,3.563121 -4.290936,-4.934682 1.250002,-0.608749 5.406558,5.765932 -4.352185,-6.279994 0.508751,-0.247813 0.919372,0.804375 5.735623,5.969374 c -2.325937,2.201561 -4.882497,5.451242 -7.022496,8.409991 l -1.011873,-0.472181 0.649999,0.974994 c -1.326874,1.85438 -2.470312,3.560003 -3.265,4.774373 l -0.861562,-0.1175 0.08594,-1.724066 -5.172185,-4.741243 -0.08656,0.09656 c -0.299379,-0.48906 -0.580315,-0.968752 -0.842503,-1.4325 1.680624,-2.814367 4.254373,-6.94812 5.563123,-9.04062 z m 1.881561,20.357175 c -1.09156,0.110313 -2.232497,0.263746 -2.563436,0.309376 -0.0069,-0.0044 -0.01312,-0.0071 -0.02062,-0.01188 -1.475625,-0.834058 -1.548126,-2.504683 -1.537187,-2.981248 l 0.451562,-0.173746 c 1.371248,1.404372 2.624999,2.294999 3.669686,2.857499 z m 25.723736,33.723112 c 0,0 -0.03063,0.0954 -0.09563,0.27031 -1.455936,1.57938 -4.479059,4.095 -9.071557,4.25875 0,0 3.907497,0.90969 7.956559,-1.88187 -0.281562,0.50687 -0.618439,1.06281 -1.016876,1.64875 -1.003747,0.50937 -2.54656,1.07937 -4.425621,1.07937 0,0 0.769999,1.185 2.918437,0.88344 -2.0025,2.32093 -4.950936,4.72818 -9.166559,6.13868 l 1.95406,-2.7075 -3.679686,3.18541 0.0069,0.0208 c -0.294063,0.0733 -0.591877,0.14285 -0.89625,0.20594 0,0 -4.036249,0.82006 -8.007809,-0.646 l 0.545625,-5.37103 -1.38,5.02682 c -0.98656,-0.45145 -1.951247,-1.05956 -2.828747,-1.87416 l 0.6075,-7.20954 -1.444688,6.33782 c -0.724687,-0.84968 -1.363749,-1.87594 -1.873124,-3.11187 l 0.555939,-6.58844 -1.122814,4.92407 c -0.194652,-0.70533 -0.353089,-1.46656 -0.468089,-2.28781 l 0.704373,-5.63531 0.344689,-7.470321 -1.95375,4.48219 -0.876561,8.181871 -1.192499,-0.59593 c -0.574376,-2.98814 0.804686,-10.114381 0.804686,-10.114381 -0.682186,1.69187 -1.115937,3.21999 -1.384373,4.569071 l 0.0053,-0.0869 -8.9647126,16.78053 3.9074656,-4.7121 1.264124,0.91907 3.414061,-8.70032 c 0.05813,1.6925 0.379062,2.60938 0.379062,2.60938 l 1.537813,1.4675 -0.273749,2.55468 c 0,0 0.795311,3.86896 4.316247,6.60678 l -4.316247,8.10472 0.804686,1.37915 5.359685,-8.30834 c 0.483437,0.2477 2.3575,0.87181 2.915936,1.06775 l -9.612493,23.03062 c -1.252188,0.10875 -2.135624,0.19055 -2.135624,0.19055 l -6.643122,-0.78856 1.067748,-7.08656 -3.4715596,6.94313 c -3.009003,0.31057 -17.4083969,0.52822 -23.0312164,-22.71358 L 3.7147214,93.821969 c 4.143902,4.45687 8.4532456,6.496251 8.4532456,6.496251 0.242531,-0.0581 0.478248,-0.12281 0.708717,-0.19375 l -1.283561,2.83687 -1.494124,-0.91937 -7.1258706,17.70005 12.6442736,-20.895681 c 5.019372,-3.27156 5.744997,-9.791557 5.744997,-9.791557 -4.941874,7.700927 -8.619745,8.159997 -8.619745,8.159997 -0.483626,-0.25751 -1.31128,-0.8775 -2.251561,-1.63594 l 1.276592,-1.51031 -1.8394676,1.05063 c -0.501345,-0.41312 -1.019781,-0.85032 -1.525405,-1.28313 l 1.066405,-1.26187 -1.522436,0.86969 c -0.572875,-0.49438 -1.114875,-0.96938 -1.577406,-1.37813 l 1.063001,-0.8975 -1.468625,0.53812 c -0.63025,-0.55968 -1.036625,-0.9278 -1.036625,-0.9278 -0.773687,-0.865632 -1.419312,-1.746259 -1.959967,-2.615006 l 0.850218,-0.442497 -1.036499,0.13562 C 2.6214404,87.589164 2.4720344,87.32353 2.3319094,87.059784 l 1.600592,-0.832809 -1.898686,0.247811 C 1.4163785,85.20885 1.0071914,84.011347 0.73803477,82.973539 L 2.5135334,82.618536 0.58081667,82.32104 C 0.19297267,80.561036 0.21484817,79.400418 0.21484817,79.400418 -0.01515233,73.768546 5.6166894,59.861675 5.6166894,59.861675 L 15.73084,55.95418 c 0.542812,1.37156 1.964373,2.075934 2.528435,3.217808 0.532186,1.07844 1.064686,2.060627 1.593751,2.959688 l -0.128438,0.143441 1.220936,1.604993 c 0.758437,1.139377 1.50406,2.110942 2.223437,2.938437 l -1.295624,0.837187 0.930312,0.181248 c 0.186561,3.132493 2.065311,3.431868 2.065311,3.431868 l -1.424373,0.985632 5.860309,-0.947817 c 0.933747,0.297505 1.482498,0.278124 1.482498,0.278124 l -0.230001,3.793125 c -2.429374,2.42938 -5.101247,2.584683 -7.426558,1.904377 l -0.609375,-0.923438 0.198124,0.793745 c -0.724061,-0.245933 -1.409373,-0.567186 -2.03781,-0.918435 l -0.41125,-0.798749 0.08438,0.610937 c -2.011874,-1.1925 -3.359686,-2.622497 -3.359686,-2.622497 -0.689686,-0.804375 -3.103499,-8.734992 -3.103499,-8.734992 l 0.57475,5.976555 c -2.758341,-2.758428 -3.677779,-9.88436 -3.677779,-9.88436 -0.242812,3.882806 0.525625,6.867802 1.622812,9.10749 -3.4677776,-0.266253 -6.6800586,-4.739994 -6.6800586,-4.739994 3.017561,6.129678 6.5764036,6.610929 7.7568386,6.586242 0.372189,0.541558 0.754625,1.019994 1.130375,1.43875 -1.859029,-0.300312 -5.0546836,-0.829692 -7.8526826,-1.358751 l 8.0089316,4.178435 c -2.390873,0.814685 -5.9576506,1.668435 -8.8980876,0.874371 1.261968,0.354064 5.4858416,1.399375 9.2284006,0.694374 -1.87306,0.850942 -4.672966,1.669374 -8.5689626,1.723436 0,0 4.2133726,1.632508 10.4083366,-1.272498 l 2.808748,1.617192 2.298748,2.069058 c 0,0 0.115,3.217808 -0.229687,4.482184 0,0 1.014689,-0.896252 1.323438,-3.633748 0.372188,0.235001 0.794688,0.471871 1.239375,0.703435 -0.140313,1.335001 -0.650624,4.12594 -2.491562,8.021246 0,0 2.77,-3.954994 4.087186,-7.248434 0.330938,0.150626 0.653749,0.29219 0.958125,0.422815 -0.361249,1.025308 -1.221873,3.064374 -3.050936,5.712809 0,0 2.691249,-2.877811 4.080623,-5.283432 0.592188,0.240307 0.979687,0.385627 0.979687,0.385627 H 29.1049 l 0.475626,2.447183 -4.424999,5.828122 c 0,0 2.929372,-3.44531 4.909684,-4.668434 l 5.363123,4.704684 0.186251,2.6078 0.804374,-0.57499 c 0,0 0.459999,1.72343 -1.149063,3.21812 0,0 2.307812,-0.73625 3.911874,-2.38281 0.210624,0.31437 0.478748,0.68969 0.808748,1.1025 0.768438,0.96219 2.080938,1.74625 3.523438,2.780631 1.698435,1.21875 2.715936,2.71594 6.352497,2.98187 l 3.982183,-4.272811 c -0.461561,1.925621 -1.712812,5.200001 -5.023122,6.834371 0,0 2.395626,-0.20562 5.637499,-3.75187 z m 1.152501,-8.961241 -1.671561,-0.23189 1.22406,0.67969 -2.907809,3.12093 -1.520624,1.810951 c 0,0 -1.73125,-0.12968 -3.8125,-1.049691 l 3.183123,-0.61844 0.547814,-0.43812 c -4.053437,-1.09532 -6.900623,-2.9575 -6.900623,-2.9575 -0.175623,0.72125 -0.231873,1.31625 -0.204063,1.81 -0.523125,-0.48907 -1.022186,-1.05126 -1.474372,-1.69719 l 7.59312,-7.780305 -1.42375,0.109062 2.628437,-1.861874 5.899059,-6.28594 c 3.609373,1.860937 4.991247,4.415943 5.519685,6.059372 l -0.50625,1.040004 -0.867499,1.813437 0.2825,1.009374 z m 2.882812,0.56343 -1.310625,0.61687 4.745308,-5.09156 1.211876,-0.0685 z M 5.5990014,76.786973 c -0.03247,-0.01025 -0.06519,-0.01966 -0.09719,-0.0303 0,0 0.03347,0.01063 0.09719,0.0303 z m 2.661123,22.611546 -4.597279,11.838761 5.171998,-10.34437 z M 45.81395,62.986984 c 0,0 1.264374,-4.634678 -5.4775,-6.635928 0,0 5.10875,2.264376 5.4775,6.635928"
       style="fill:#ffffff;fill-opacity:1;fill-rule:nonzero;stroke:none;stroke-width:0.0312499"
       id="path982" />
  </g>
</svg>
