<?xml version="1.0" encoding="UTF-8" standalone="no"?>
<!-- Created with Inkscape (http://www.inkscape.org/) -->

<svg
   width="105mm"
   height="105mm"
   viewBox="0 0 105 105"
   version="1.1"
   id="svg5"
   inkscape:version="1.3 (0e150ed6c4, 2023-07-21)"
   sodipodi:docname="player.svg"
   xml:space="preserve"
   xmlns:inkscape="http://www.inkscape.org/namespaces/inkscape"
   xmlns:sodipodi="http://sodipodi.sourceforge.net/DTD/sodipodi-0.dtd"
   xmlns="http://www.w3.org/2000/svg"
   xmlns:svg="http://www.w3.org/2000/svg"><sodipodi:namedview
     id="namedview7"
     pagecolor="#505050"
     bordercolor="#eeeeee"
     borderopacity="1"
     inkscape:pageshadow="0"
     inkscape:pageopacity="0"
     inkscape:pagecheckerboard="0"
     inkscape:document-units="mm"
     showgrid="false"
     inkscape:zoom="0.42982188"
     inkscape:cx="169.83779"
     inkscape:cy="60.490173"
     inkscape:window-width="1920"
     inkscape:window-height="1080"
     inkscape:window-x="0"
     inkscape:window-y="0"
     inkscape:window-maximized="1"
     inkscape:current-layer="layer1"
     inkscape:showpageshadow="0"
     inkscape:deskcolor="#d1d1d1" /><defs
     id="defs2"><linearGradient
       id="linearGradient1135"
       inkscape:swatch="solid"><stop
         style="stop-color:#ffffff;stop-opacity:1;"
         offset="0"
         id="stop1133" /></linearGradient></defs><g
     inkscape:label="Layer 1"
     inkscape:groupmode="layer"
     id="layer1"
     transform="translate(29.117081,-42.765404)"><g
       id="g1160"
       transform="rotate(45,23.382919,95.265404)" /><g
       id="g1"
       transform="matrix(0.73810113,0,0,0.73810113,-105.82621,107.06869)"><rect
         style="fill:#ffffff;stroke-width:1"
         id="rect1"
         width="90"
         height="50"
         x="130.05614"
         y="-40.991425" /><path
         style="fill:#000000"
         d="m 147.14385,51.36967 c -0.43656,-0.198394 -9.45535,-9.034234 -20.04176,-19.6352 -15.02946,-15.050137 -19.30608,-19.477004 -19.51302,-20.198533 -0.37321,-1.30133 -0.36206,-54.209947 0.0117,-55.216047 0.15472,-0.416543 8.81344,-9.28871 19.64531,-20.129583 15.2746,-15.2873 19.56439,-19.43952 20.29469,-19.64383 1.31428,-0.36771 54.22296,-0.35369 55.21455,0.0146 0.41654,0.15472 9.28871,8.81344 20.12958,19.64531 15.28729,15.274603 19.43951,19.564394 19.64383,20.294693 0.3677,1.31428 0.35369,54.222956 -0.0146,55.214544 -0.15472,0.416544 -8.81344,9.28871 -19.64531,20.129581 -15.2746,15.2873 -19.5644,19.439516 -20.2947,19.643837 -0.57741,0.161546 -11.03615,0.255739 -27.78124,0.250202 -22.09598,-0.0073 -26.99588,-0.07281 -27.64896,-0.369597 z M 218.38218,27.344022 236.17613,9.5515287 V -15.982231 -41.515992 l -17.79395,-17.792491 -17.79396,-17.7925 h -25.53083 -25.53083 l -17.79396,17.7925 -17.79396,17.792491 v 25.532296 25.5322957 l 17.7925,17.7939583 17.79249,17.793957 h 25.5323 25.53229 z M 136.49355,22.579974 120.55323,6.6380157 V -15.983864 -38.605745 l 15.94195,-15.940325 15.94196,-15.940323 h 22.62188 22.62188 l 15.94033,15.941956 15.94032,15.941958 V -15.980598 6.6412827 L 213.61959,22.581608 197.67764,38.521932 h -22.62188 -22.62188 z m 8.51272,-25.9914493 c 2.02137,-0.194314 3.51652,-0.867867 4.55697,-2.052891 1.24148,-1.413993 1.54999,-2.589938 1.54461,-5.8876567 -0.005,-3.205343 -0.25859,-3.995168 -1.81081,-5.64497 -1.33814,-1.422268 -2.12567,-1.693214 -5.55835,-1.912327 -3.57068,-0.227921 -3.99272,-0.443335 -3.94816,-2.015177 0.0458,-1.616751 0.37351,-1.712124 5.56772,-1.620521 l 4.5644,0.0805 -3.4e-4,-2.68202 -3.4e-4,-2.682021 -1.78593,-0.360688 c -1.01918,-0.205833 -3.43305,-0.360688 -5.6224,-0.360688 -3.46932,0 -3.96917,0.06 -5.22331,0.626943 -1.61663,0.730816 -3.02942,2.182972 -3.53934,3.637953 -0.21488,0.61315 -0.36042,2.145899 -0.36127,3.804895 -0.001,2.487605 0.0737,2.931425 0.71713,4.244065 1.22128,2.491504 2.9619,3.362192 7.21617,3.60965 2.82292,0.1642 3.57187,0.484893 3.57187,1.529431 0,1.6613837 -1.43275,2.0267837 -7.0776,1.8050217 l -4.0349,-0.158514 v 2.668498 2.668498 l 1.50813,0.313086 c 1.81345,0.37647 5.93719,0.730022 7.22312,0.619281 0.50932,-0.04386 1.63101,-0.147516 2.49263,-0.230344 z m 42.16593,0.01279 c 3.3808,-0.288811 5.79435,-2.054482 6.91968,-5.062207 0.87317,-2.3337407 1.25047,-6.8213897 0.88281,-10.5000907 -0.66,-6.603768 -2.91595,-9.196551 -8.42183,-9.679296 -3.00446,-0.263426 -6.3898,0.0603 -8.03591,0.768436 -3.38358,1.455574 -5.04706,5.374328 -5.04706,11.889615 0,6.5261347 1.66277,10.4337357 5.06205,11.8960647 1.27881,0.550129 4.86404,1.06253 6.31503,0.902542 0.3638,-0.04011 1.41016,-0.136892 2.32523,-0.215064 z m -4.38658,-5.952279 c -1.99393,-0.501185 -2.4435,-1.7908507 -2.42163,-6.9468637 0.0231,-5.440375 0.62007,-6.407929 3.95382,-6.407929 3.43439,0 4.0446,1.131493 3.91134,7.252696 -0.11272,5.177566 -0.49712,5.9049357 -3.27027,6.1880037 -0.71639,0.07313 -1.69436,0.03447 -2.17326,-0.08591 z M 165.79697,-12.93952 v -9.657294 h 3.18367 3.18366 l -0.0748,-2.976562 -0.0748,-2.976563 -9.59114,-0.06945 -9.59115,-0.06945 v 3.046008 3.046009 h 3.175 3.175 v 9.657291 9.6572907 h 3.30729 3.30729 z m 38.89375,5.8697247 v -3.7875687 l 2.05052,0.361549 c 5.97807,1.0540557 9.14693,-1.136511 9.90538,-6.847382 0.60785,-4.576906 -0.57943,-8.59629 -2.97712,-10.078672 -1.66429,-1.028953 -3.47107,-1.257058 -9.97097,-1.258829 l -5.62239,-0.0015 v 12.699997 12.6999987 h 3.30729 3.30729 z m 0,-12.3520157 v -3.175 h 2.09777 c 2.94168,0 3.35767,0.512817 3.14357,3.875245 -0.14312,2.247617 -0.43455,2.474755 -3.17524,2.474755 h -2.0661 z"
         id="path1" /></g></g></svg>
